<?xml version="1.0" standalone="no"?>
<!DOCTYPE svg PUBLIC "-//W3C//DTD SVG 20010904//EN"
 "http://www.w3.org/TR/2001/REC-SVG-20010904/DTD/svg10.dtd">
<svg version="1.0" xmlns="http://www.w3.org/2000/svg"
 width="217.000000pt" height="217.000000pt" viewBox="0 0 217.000000 217.000000"
 preserveAspectRatio="xMidYMid meet">
<metadata>
Created by potrace 1.11, written by Peter Selinger 2001-2013
</metadata>
<g transform="translate(0.000000,217.000000) scale(0.100000,-0.100000)"
fill="#000000" stroke="none">
<path d="M484 1852 c-33 -22 -34 -49 -34 -770 l0 -719 23 -21 c29 -27 61 -28
87 -2 19 19 20 33 20 360 l0 339 505 0 505 0 0 -339 c0 -327 1 -341 20 -360
11 -11 26 -20 33 -20 30 0 55 13 65 34 6 15 10 274 10 741 l0 718 -24 23 c-28
29 -58 30 -84 4 -19 -19 -20 -33 -20 -359 l0 -339 -505 -1 -505 -1 0 338 c0
327 -1 339 -20 360 -21 22 -55 28 -76 14z"/>
<path d="M263 1790 c-12 -5 -26 -18 -32 -29 -8 -13 -11 -231 -11 -676 l0 -656
25 -25 c27 -27 54 -26 88 4 16 14 17 59 17 683 l0 668 -26 20 c-30 23 -30 23
-61 11z"/>
<path d="M1845 1778 l-27 -23 1 -665 1 -665 26 -23 c18 -16 33 -21 47 -16 54
16 52 -18 55 698 2 623 1 665 -15 684 -29 33 -57 36 -88 10z"/>
<path d="M20 1680 c-20 -20 -20 -33 -20 -590 0 -557 0 -570 20 -590 11 -11 31
-20 45 -20 14 0 34 9 45 20 20 20 20 33 20 588 0 558 0 569 -20 590 -26 27
-64 28 -90 2z"/>
<path d="M2060 1680 c-20 -20 -20 -33 -20 -590 l0 -569 22 -21 c28 -25 62 -26
88 0 20 20 20 33 20 588 0 558 0 569 -20 590 -26 27 -64 28 -90 2z"/>
</g>
</svg>
